<?xml version="1.0" encoding="UTF-8"?>
<svg xmlns="http://www.w3.org/2000/svg" viewBox="0 0 240 120" preserveAspectRatio="xMidYMid meet">
  <title>Rose silhouette decorative</title>
  <g fill="none" stroke="none">
    <path d="M30 60 C30 30, 70 20, 90 40 C110 20, 150 30, 150 60 C150 90, 110 100, 90 80 C70 100, 30 90, 30 60 Z" fill="#9b4b4b"/>
    <path d="M92 78 C96 86, 110 90, 118 86 C126 82, 132 70, 128 62 C124 54, 112 50, 104 54 C96 58, 88 70, 92 78 Z" fill="#c76b6b" opacity="0.95"/>
    <rect x="74" y="76" width="6" height="34" rx="3" ry="3" fill="#4a6f46" transform="rotate(-12 77 93)"/>
    <rect x="86" y="76" width="6" height="38" rx="3" ry="3" fill="#4a6f46" transform="rotate(8 89 95)"/>
  </g>
</svg>
<svg xmlns="http://www.w3.org/2000/svg" viewBox="0 0 180 110" role="img" aria-label="Decorative rose silhouette">
  <g fill="#8f1f43">
    <path d="M74 18c14 0 27 10 30 24 3 14-4 29-17 36-12 7-28 6-39-3-11-9-16-23-12-37 4-12 14-20 26-20h12z"/>
    <path d="M78 34c-8 0-15 6-15 14 0 5 2 8 6 11-8 1-14 8-14 16 0 11 9 19 20 19 11 0 20-8 20-19 0-8-4-14-11-17 8-2 13-8 13-16 0-10-8-18-19-18z"/>
    <path d="M52 76c-16 4-28 15-35 30 18-7 32-10 47-9-5-5-9-11-12-21z"/>
    <path d="M106 74c15 5 27 16 34 31-18-7-32-10-47-9 6-5 10-12 13-22z"/>
    <path d="M79 86c-2 8-3 15-2 24 1-2 3-5 5-7 4-6 7-13 8-20-4 2-7 3-11 3z"/>
  </g>
  <path d="M84 19c6-10 17-14 27-12-8 4-14 9-19 18" fill="none" stroke="#8f1f43" stroke-width="6" stroke-linecap="round"/>
  <path d="M114 64c15 2 30 12 36 28" fill="none" stroke="#8f1f43" stroke-width="5" stroke-linecap="round"/>
  <path d="M47 66c-15 3-29 13-35 28" fill="none" stroke="#8f1f43" stroke-width="5" stroke-linecap="round"/>
</svg>
